<?xml version="1.0" encoding="UTF-8" standalone="no"?>
<!-- Uploaded to: SVG Repo, www.svgrepo.com, Generator: SVG Repo Mixer Tools -->

<svg
   height="800px"
   width="800px"
   version="1.1"
   id="Layer_1"
   viewBox="0 0 512 512"
   xml:space="preserve"
   sodipodi:docname="ether.svg"
   inkscape:version="1.4 (e7c3feb100, 2024-10-09)"
   inkscape:export-filename="offline.svg"
   inkscape:export-xdpi="96"
   inkscape:export-ydpi="96"
   xmlns:inkscape="http://www.inkscape.org/namespaces/inkscape"
   xmlns:sodipodi="http://sodipodi.sourceforge.net/DTD/sodipodi-0.dtd"
   xmlns="http://www.w3.org/2000/svg"
   xmlns:svg="http://www.w3.org/2000/svg"><defs
   id="defs1" /><sodipodi:namedview
   id="namedview1"
   pagecolor="#000000"
   bordercolor="#000000"
   borderopacity="0.25"
   inkscape:showpageshadow="2"
   inkscape:pageopacity="0.0"
   inkscape:pagecheckerboard="0"
   inkscape:deskcolor="#d1d1d1"
   inkscape:export-bgcolor="#b3b3b300"
   inkscape:zoom="0.77"
   inkscape:cx="399.35065"
   inkscape:cy="400"
   inkscape:window-width="1918"
   inkscape:window-height="1054"
   inkscape:window-x="0"
   inkscape:window-y="0"
   inkscape:window-maximized="1"
   inkscape:current-layer="Layer_1" />

<path
   style="fill:#ffffff;stroke-width:0.891232"
   d="m 456.31169,228.15584 c 0,-60.94256 -23.73356,-118.2382 -66.8256,-161.330241 C 346.39404,23.73266 289.09842,-1.8181814e-7 228.15584,-1.8181814e-7 167.21239,-1.8181814e-7 109.91764,23.73266 66.824714,66.825599 23.73266,109.91764 -1.8181818e-7,167.21328 -1.8181818e-7,228.15584 -1.8181818e-7,289.09842 23.73266,346.39404 66.825599,389.48699 c 43.092041,43.09203 100.386791,66.8247 161.330241,66.8247 60.94258,0 118.2382,-23.73267 161.33025,-66.8247 43.09204,-43.09295 66.8256,-100.38857 66.8256,-161.33115 z m -35.73047,78.0097 c -17.76049,-16.8069 -40.50389,-28.66475 -65.28819,-36.91847 1.35644,-13.42644 2.05875,-27.16658 2.05875,-41.09479 0,-13.92732 -0.70231,-27.66479 -2.05875,-41.09033 24.78341,-8.25461 47.52592,-20.11336 65.28552,-36.92204 9.80714,24.09987 15.22584,50.43493 15.22584,78.01593 -8.8e-4,27.57833 -5.4187,53.91163 -15.22317,78.0097 z M 119.46453,228.15317 c 0,-11.947 0.53919,-23.73356 1.58462,-35.27237 32.25553,8.10312 66.49228,11.07628 96.85128,11.6012 v 47.34858 c -30.35721,0.52495 -64.59397,3.49897 -96.85128,11.59939 -1.04543,-11.53968 -1.58462,-23.32803 -1.58462,-35.2768 z m 98.43498,206.70029 c -24.08825,-4.44548 -46.80758,-24.47953 -64.85062,-57.53538 -0.32619,-0.59714 -0.64167,-1.20674 -0.9643,-1.8101 20.95468,-14.85598 43.13125,-23.48402 65.81405,-25.48484 v 84.83032 z m 20.50819,-84.82854 c 22.68369,1.99993 44.86115,10.62618 65.81405,25.48306 -0.32174,0.60424 -0.63901,1.21386 -0.9652,1.81188 -18.04213,33.05407 -40.76235,53.0899 -64.84972,57.53536 z m 0,-328.57381 c 24.08738,4.445468 46.8076,24.481298 64.84975,57.535372 0.32618,0.597132 0.64167,1.205839 0.9643,1.809206 -20.95112,14.855967 -43.1277,23.484002 -65.81315,25.483032 z m -20.50819,84.82673 c -22.68367,-2.00082 -44.86113,-10.629741 -65.81225,-25.485721 0.32084,-0.601578 0.63723,-1.210294 0.96163,-1.805637 18.04304,-33.054074 40.76237,-53.089904 64.85062,-57.535372 z m 20.50819,20.57146 c 25.92867,-1.92596 51.10424,-11.15468 74.72639,-27.254809 9.12623,21.718479 15.77217,46.311179 19.66418,72.593649 -27.03914,7.11739 -58.80449,11.12707 -94.39057,11.77053 z M 320.49301,67.77922 C 312.5227,53.420548 303.63712,41.185696 294.04653,31.228833 c 15.15632,5.083598 29.53371,11.876587 42.91293,20.140094 -5.37059,5.93652 -10.86593,11.403343 -16.46645,16.410293 z M 135.816,67.777186 C 130.21638,62.771094 124.72192,57.305165 119.35314,51.37133 132.72967,43.10871 147.10526,36.317502 162.25891,31.233013 152.66834,41.187207 143.78543,53.421172 135.816,67.77717 Z m 82.08351,59.072754 v 57.10936 c -35.58605,-0.64434 -67.35229,-4.65311 -94.39232,-11.77141 3.89289,-26.28337 10.53794,-50.87607 19.66417,-72.59455 23.62481,16.10103 48.79949,25.32975 74.72815,27.2566 z m 0,145.50282 v 57.10046 c -25.92688,1.92685 -51.10244,11.15647 -74.72725,27.2566 -9.12535,-21.71757 -15.77128,-46.30672 -19.66329,-72.58744 27.03913,-7.11737 58.80537,-11.12525 94.39054,-11.76962 z m -82.08083,116.16608 c 7.97031,14.35689 16.84878,26.60424 26.43844,36.562 -15.1581,-5.08629 -29.53726,-11.87926 -42.91646,-20.14547 5.37503,-5.93917 10.87304,-11.40779 16.47802,-16.41653 z m 184.66987,-0.003 c 5.60586,5.01052 11.10656,10.48002 16.48071,16.4201 -13.38188,8.26708 -27.76195,15.06095 -42.92273,20.14724 9.59146,-9.95866 18.47172,-22.20777 26.44202,-36.56734 z M 238.4077,329.45285 v -57.10084 c 35.58519,0.64436 67.35054,4.65223 94.38968,11.76875 -3.8929,26.28068 -10.53706,50.86982 -19.6624,72.58652 -23.62481,-16.09926 -48.80039,-25.32797 -74.72728,-27.25482 z m 0,-77.62111 v -47.34859 c 30.35721,-0.52404 64.59396,-3.49898 96.84949,-11.60029 1.04452,11.53792 1.58461,23.32448 1.58461,35.27146 0,11.94968 -0.53918,23.73624 -1.58461,35.27682 -32.25641,-8.10132 -66.49139,-11.07536 -96.84949,-11.5994 z M 411.30794,130.40303 c -0.0668,0.0687 -0.13903,0.12835 -0.20498,0.19875 -13.76956,14.78112 -33.59593,26.70582 -58.50326,35.51745 -4.51498,-28.78773 -12.17603,-55.7021 -22.67031,-79.343856 8.25906,-7.014018 16.28464,-14.921931 24.04816,-23.686323 23.59007,18.025198 43.21771,40.978039 57.33039,67.313979 z M 102.33235,63.089945 c 7.76266,8.763498 15.78821,16.670527 24.04549,23.682745 -10.49517,23.64176 -18.15622,50.55613 -22.6712,79.34476 -24.906426,-8.81163 -44.731037,-20.73544 -58.498801,-35.51655 -0.06596,-0.0705 -0.13725,-0.13012 -0.204095,-0.19787 C 59.116423,104.06709 78.744067,81.115143 102.33235,63.089945 Z M 35.734018,150.1403 c 17.75783,16.80778 40.500334,28.66564 65.281092,36.92025 -1.356468,13.42555 -2.058752,27.1648 -2.058752,41.09123 0,13.9291 0.702284,27.66925 2.058752,41.09657 -24.782537,8.25372 -47.525043,20.11069 -65.284662,36.91578 -9.804456,-24.09628 -15.222272,-50.42956 -15.222272,-78.0079 0,-27.58099 5.418706,-53.91517 15.225842,-78.01593 z m 9.265262,175.76201 c 0.06767,-0.0685 0.140819,-0.12924 0.20677,-0.20143 13.769553,-14.77843 33.595058,-26.69957 58.50146,-35.51032 4.51502,28.78418 12.17604,55.69676 22.66765,79.33675 -8.25995,7.01399 -16.28907,14.92192 -24.0535,23.68631 C 78.736053,375.18893 59.111073,352.23698 44.99928,325.90191 Z m 308.98898,67.3122 c -7.76622,-8.76528 -15.79534,-16.67409 -24.0562,-23.68899 10.4934,-23.63999 18.15266,-50.55078 22.66677,-79.33585 24.90729,8.80896 44.73457,20.73189 58.50504,35.51121 0.0668,0.0722 0.13902,0.13102 0.20854,0.20143 -14.1118,26.33595 -33.73766,49.28789 -57.32415,67.3122 z"
   id="path1" />
<path
   d="M 499.55949,334.14095 H 471.04 v -32.83117 c 0,-6.01904 -4.27792,-10.94372 -9.50649,-10.94372 h -28.51948 v -32.83117 c 0,-6.01905 -4.27792,-10.94372 -9.50649,-10.94372 H 290.41663 c -5.22857,0 -9.5065,4.92467 -9.5065,10.94372 v 32.83117 h -28.51948 c -5.22857,0 -9.50649,4.92468 -9.50649,10.94372 v 32.83117 h -28.51948 c -5.22858,0 -9.5065,4.92467 -9.5065,10.94373 V 498.2968 c 0,6.01904 4.27792,10.94372 9.5065,10.94372 h 47.53246 v -87.54978 h 19.01299 v 87.54978 h 38.02598 v -87.54978 h 19.01298 v 87.54978 h 38.02598 v -87.54978 h 19.01299 v 87.54978 h 38.02597 v -87.54978 h 19.01299 v 87.54978 h 47.53247 c 5.22857,0 9.50649,-4.92468 9.50649,-10.94372 V 345.08468 c 0,-6.01906 -4.27792,-10.94373 -9.50649,-10.94373 z"
   id="path1-5"
   style="fill:#d9d9d9;fill-opacity:0.9;stroke-width:0.637489" /></svg>
