<?xml version="1.0" encoding="UTF-8" standalone="no"?>
<!-- Created with Inkscape (http://www.inkscape.org/) -->

<svg
   width="12.617261mm"
   height="12.469302mm"
   viewBox="0 0 12.617261 12.469302"
   version="1.1"
   id="svg1"
   inkscape:version="1.4 (e7c3feb100, 2024-10-09)"
   sodipodi:docname="rec.svg"
   xmlns:inkscape="http://www.inkscape.org/namespaces/inkscape"
   xmlns:sodipodi="http://sodipodi.sourceforge.net/DTD/sodipodi-0.dtd"
   xmlns="http://www.w3.org/2000/svg"
   xmlns:svg="http://www.w3.org/2000/svg">
  <sodipodi:namedview
     id="namedview1"
     pagecolor="#4d4d4d"
     bordercolor="#000000"
     borderopacity="0.25"
     inkscape:showpageshadow="2"
     inkscape:pageopacity="0.0"
     inkscape:pagecheckerboard="0"
     inkscape:deskcolor="#d1d1d1"
     inkscape:document-units="mm"
     inkscape:zoom="0.77415123"
     inkscape:cx="257.70158"
     inkscape:cy="-75.56663"
     inkscape:window-width="1918"
     inkscape:window-height="1054"
     inkscape:window-x="0"
     inkscape:window-y="0"
     inkscape:window-maximized="1"
     inkscape:current-layer="layer1"
     inkscape:clip-to-page="false" />
  <defs
     id="defs1">
    <rect
       x="273.8483"
       y="430.1485"
       width="174.38454"
       height="99.463768"
       id="rect1" />
  </defs>
  <g
     inkscape:label="Layer 1"
     inkscape:groupmode="layer"
     id="layer1"
     transform="translate(-1.8825845,-2.1556218)">
    <g
       id="g9"
       transform="matrix(0.27129015,0,0,0.27129015,1.5154156,1.5708228)"
       inkscape:export-filename="rec1.svg"
       inkscape:export-xdpi="10"
       inkscape:export-ydpi="10">
      <path
         style="fill:#ffffff;fill-opacity:1;stroke-width:0.316362"
         d="M 22.2175,47.993984 C 14.407291,47.274544 7.2885169,42.406337 3.7660999,35.375902 1.9302509,31.711709 1.3534179,29.255805 1.3534179,25.103747 c 0,-4.152059 0.576833,-6.607965 2.412682,-10.272158 C 6.7954159,8.7853382 12.739496,4.1477302 19.41537,2.6219302 c 2.749261,-0.628354 7.665723,-0.620554 10.470502,0.01661 1.215881,0.276213 3.568483,1.151547 5.228006,1.945184 2.568294,1.228242 3.448186,1.869288 5.912723,4.307705 2.431246,2.4054778 3.133952,3.3430308 4.383369,5.8483068 1.8763,3.762294 2.45181,6.194995 2.45181,10.36401 0,4.169014 -0.57551,6.601716 -2.45181,10.364009 -1.251909,2.510271 -1.945666,3.434658 -4.373225,5.827034 -2.42699,2.391817 -3.366139,3.076454 -5.912728,4.310375 -4.397198,2.1306 -8.156372,2.82638 -12.906517,2.38882 z M 10.5857,30.28575 c 0,-1.640966 0.131677,-2.983577 0.292616,-2.983577 0.857518,0 1.436999,0.631135 2.912442,3.172059 l 1.623032,2.795098 h 1.888128 c 1.03847,0 1.888128,-0.137889 1.888128,-0.306417 0,-0.168529 -0.918894,-1.706391 -2.041986,-3.417474 l -2.041984,-3.111058 0.751938,-0.33764 c 1.587043,-0.712626 2.318823,-3.567308 1.44628,-5.641946 -0.696372,-1.655756 -2.274087,-2.25066 -6.570666,-2.477581 L 7.0802259,17.78426 v 7.742534 7.742536 H 8.8329639 10.5857 Z m 19.120768,1.413275 V 30.12872 H 26.997692 24.288916 V 28.401386 26.67405 h 2.549436 2.549436 v -1.413273 -1.413274 h -2.549436 -2.549436 v -1.413275 -1.413274 h 2.708776 2.708776 v -1.570303 -1.570306 h -4.461514 -4.461512 v 7.694492 7.694493 h 4.461512 4.461514 z m 12.508166,1.23973 c 1.179768,-0.322889 1.195049,-0.347392 1.195049,-1.916214 0,-1.393951 -0.0685,-1.560172 -0.557689,-1.353275 -0.30673,0.129729 -1.314492,0.381173 -2.239475,0.558763 -3.148628,0.604517 -4.914878,-1.014854 -4.914878,-4.506166 0,-3.641878 1.803957,-5.453445 4.758193,-4.778264 0.835887,0.19104 1.738693,0.430923 2.006236,0.533069 0.355856,0.135866 0.630995,-0.198638 1.024896,-1.246032 l 0.538451,-1.431758 -0.865556,-0.365863 c -0.476056,-0.201224 -2.166679,-0.372563 -3.756944,-0.380752 -2.628377,-0.01354 -3.01087,0.06304 -4.204885,0.841748 -1.830449,1.193776 -2.913705,3.144184 -3.153844,5.6785 -0.357048,3.768129 0.948138,6.801448 3.452133,8.022929 1.541203,0.751821 4.646014,0.910481 6.718313,0.343315 z"
         id="path6" />
      <path
         style="fill:#ffffff;fill-opacity:1;stroke-width:1.29174"
         d="m 39.397987,87.330467 v -8.534494 h 4.233661 c 5.539851,0 9.975449,3.19162 9.975449,7.177802 0,3.768911 -4.183005,8.323045 -7.644776,8.323045 -1.362805,0 -3.397291,0.352832 -4.52108,0.784071 -1.736125,0.666213 -2.043254,-0.498783 -2.043254,-7.750424 z"
         id="path9"
         transform="scale(0.26458333)" />
    </g>
  </g>
</svg>
